<svg width="20" height="20" viewBox="0 0 20 20" xmlns="http://www.w3.org/2000/svg">
<path fill-rule="evenodd" clip-rule="evenodd" d="M7.99999 4.00003C6.93913 4.00003 5.92171 4.42146 5.17156 5.17161C4.42142 5.92175 3.99999 6.93917 3.99999 8.00003C3.99999 9.0609 4.42142 10.0783 5.17156 10.8285C5.92171 11.5786 6.93913 12 7.99999 12C9.06086 12 10.0783 11.5786 10.8284 10.8285C11.5786 10.0783 12 9.0609 12 8.00003C12 6.93917 11.5786 5.92175 10.8284 5.17161C10.0783 4.42146 9.06086 4.00003 7.99999 4.00003ZM1.99999 8.00003C1.99987 7.05574 2.22263 6.12475 2.65016 5.28278C3.07769 4.4408 3.69791 3.71163 4.46039 3.15456C5.22286 2.59749 6.10605 2.22825 7.03814 2.07687C7.97022 1.92549 8.92487 1.99625 9.82446 2.28338C10.724 2.57052 11.5431 3.06594 12.2152 3.72933C12.8872 4.39272 13.3931 5.20537 13.6918 6.10117C13.9906 6.99697 14.0736 7.95063 13.9343 8.88459C13.795 9.81855 13.4372 10.7064 12.89 11.476L17.707 16.293C17.8891 16.4816 17.9899 16.7342 17.9877 16.9964C17.9854 17.2586 17.8802 17.5094 17.6948 17.6949C17.5094 17.8803 17.2586 17.9854 16.9964 17.9877C16.7342 17.99 16.4816 17.8892 16.293 17.707L11.477 12.891C10.5794 13.5293 9.52334 13.9082 8.42467 13.9862C7.326 14.0641 6.22706 13.8381 5.24829 13.333C4.26952 12.8279 3.44868 12.0631 2.87572 11.1224C2.30275 10.1817 1.99978 9.10147 1.99999 8.00003Z" fill="white"/>
</svg>
